<?xml version="1.0" encoding="utf-8"?>
<!-- Generator: Adobe Illustrator 27.5.0, SVG Export Plug-In . SVG Version: 6.00 Build 0)  -->
<svg version="1.1" xmlns="http://www.w3.org/2000/svg" xmlns:xlink="http://www.w3.org/1999/xlink" x="0px" y="0px"
	 viewBox="0 0 750 500" style="enable-background:new 0 0 750 500;" xml:space="preserve">
<g id="BACKGROUND">
	<rect style="fill:#FFFFFF;" width="750" height="500"/>
</g>
<g id="OBJECTS">
	<g>
		<g>
			<defs>
				<rect id="SVGID_1_" width="750" height="500"/>
			</defs>
			<clipPath id="SVGID_00000056395664142770439620000009318998436493683353_">
				<use xlink:href="#SVGID_1_"  style="overflow:visible;"/>
			</clipPath>
			<g style="opacity:0.3;clip-path:url(#SVGID_00000056395664142770439620000009318998436493683353_);">
				
					<linearGradient id="SVGID_00000015314989015322413060000009987025220571895434_" gradientUnits="userSpaceOnUse" x1="-4837.9404" y1="-54.9859" x2="-4764.6357" y2="74.8691" gradientTransform="matrix(-1 0 0 -1 -4709.541 350.129)">
					<stop  offset="0" style="stop-color:#81C0E9"/>
					<stop  offset="0.3041" style="stop-color:#A4D1EF;stop-opacity:0.6959"/>
					<stop  offset="0.9747" style="stop-color:#FCFDFE;stop-opacity:0.0253"/>
					<stop  offset="1" style="stop-color:#FFFFFF;stop-opacity:0"/>
				</linearGradient>
				<polygon style="opacity:0.5;fill:url(#SVGID_00000015314989015322413060000009987025220571895434_);" points="143.907,282.701 
					186.688,356.801 143.907,430.9 58.344,430.9 15.563,356.801 58.344,282.701 				"/>
				
					<linearGradient id="SVGID_00000034778540930666666980000017249307106636568719_" gradientUnits="userSpaceOnUse" x1="-4709.252" y1="-129.0854" x2="-4635.9473" y2="0.7695" gradientTransform="matrix(-1 0 0 -1 -4709.541 350.129)">
					<stop  offset="0" style="stop-color:#81C0E9"/>
					<stop  offset="0.3041" style="stop-color:#A4D1EF;stop-opacity:0.6959"/>
					<stop  offset="0.9747" style="stop-color:#FCFDFE;stop-opacity:0.0253"/>
					<stop  offset="1" style="stop-color:#FFFFFF;stop-opacity:0"/>
				</linearGradient>
				<polygon style="opacity:0.5;fill:url(#SVGID_00000034778540930666666980000017249307106636568719_);" points="15.219,356.801 
					58,430.9 15.219,505 -70.344,505 -113.126,430.9 -70.344,356.801 				"/>
				
					<linearGradient id="SVGID_00000097480836634997252310000018278236702970726290_" gradientUnits="userSpaceOnUse" x1="-4752.3779" y1="-54.9858" x2="-4679.0728" y2="74.8691" gradientTransform="matrix(-1 0 0 -1 -4709.541 350.129)">
					<stop  offset="0" style="stop-color:#81C0E9"/>
					<stop  offset="0.3041" style="stop-color:#A4D1EF;stop-opacity:0.6959"/>
					<stop  offset="0.9747" style="stop-color:#FCFDFE;stop-opacity:0.0253"/>
					<stop  offset="1" style="stop-color:#FFFFFF;stop-opacity:0"/>
				</linearGradient>
				<polygon style="opacity:0.5;fill:url(#SVGID_00000097480836634997252310000018278236702970726290_);" points="58.344,282.701 
					101.126,356.801 58.344,430.9 -27.219,430.9 -70,356.801 -27.219,282.701 				"/>
				
					<linearGradient id="SVGID_00000017517369309710666090000014933805820222906018_" gradientUnits="userSpaceOnUse" x1="-4880.3779" y1="19.1138" x2="-4807.0728" y2="148.9687" gradientTransform="matrix(-1 0 0 -1 -4709.541 350.129)">
					<stop  offset="0" style="stop-color:#81C0E9"/>
					<stop  offset="0.3041" style="stop-color:#A4D1EF;stop-opacity:0.6959"/>
					<stop  offset="0.9747" style="stop-color:#FCFDFE;stop-opacity:0.0253"/>
					<stop  offset="1" style="stop-color:#FFFFFF;stop-opacity:0"/>
				</linearGradient>
				<polygon style="opacity:0.7;fill:url(#SVGID_00000017517369309710666090000014933805820222906018_);" points="186.344,208.602 
					229.126,282.701 186.344,356.801 100.781,356.801 58,282.701 100.781,208.602 				"/>
			</g>
			<g style="opacity:0.3;clip-path:url(#SVGID_00000056395664142770439620000009318998436493683353_);">
				
					<linearGradient id="SVGID_00000160189915092860679310000016497215548968756622_" gradientUnits="userSpaceOnUse" x1="622.2227" y1="93.7007" x2="695.5278" y2="223.5556">
					<stop  offset="0" style="stop-color:#81C0E9"/>
					<stop  offset="0.3041" style="stop-color:#A4D1EF;stop-opacity:0.6959"/>
					<stop  offset="0.9747" style="stop-color:#FCFDFE;stop-opacity:0.0253"/>
					<stop  offset="1" style="stop-color:#FFFFFF;stop-opacity:0"/>
				</linearGradient>
				<polygon style="opacity:0.5;fill:url(#SVGID_00000160189915092860679310000016497215548968756622_);" points="606.715,216.114 
					563.934,142.015 606.715,67.915 692.278,67.915 735.06,142.015 692.278,216.114 				"/>
				
					<linearGradient id="SVGID_00000036251223038026399340000010591950591761649832_" gradientUnits="userSpaceOnUse" x1="750.9112" y1="18.0683" x2="824.2163" y2="147.9232">
					<stop  offset="0" style="stop-color:#81C0E9"/>
					<stop  offset="0.3041" style="stop-color:#A4D1EF;stop-opacity:0.6959"/>
					<stop  offset="0.9747" style="stop-color:#FCFDFE;stop-opacity:0.0253"/>
					<stop  offset="1" style="stop-color:#FFFFFF;stop-opacity:0"/>
				</linearGradient>
				<polygon style="opacity:0.5;fill:url(#SVGID_00000036251223038026399340000010591950591761649832_);" points="735.404,140.482 
					692.622,66.382 735.404,-7.717 820.967,-7.717 863.748,66.382 820.967,140.482 				"/>
				
					<linearGradient id="SVGID_00000028318817107199167700000014249012101770055102_" gradientUnits="userSpaceOnUse" x1="707.7855" y1="93.7006" x2="781.0906" y2="223.5556">
					<stop  offset="0" style="stop-color:#81C0E9"/>
					<stop  offset="0.3041" style="stop-color:#A4D1EF;stop-opacity:0.6959"/>
					<stop  offset="0.9747" style="stop-color:#FCFDFE;stop-opacity:0.0253"/>
					<stop  offset="1" style="stop-color:#FFFFFF;stop-opacity:0"/>
				</linearGradient>
				<polygon style="opacity:0.5;fill:url(#SVGID_00000028318817107199167700000014249012101770055102_);" points="692.278,216.114 
					649.497,142.015 692.278,67.915 777.841,67.915 820.622,142.015 777.841,216.114 				"/>
				
					<linearGradient id="SVGID_00000062907744878402443060000009350208231894187699_" gradientUnits="userSpaceOnUse" x1="579.7855" y1="167.8002" x2="653.0906" y2="297.6552">
					<stop  offset="0" style="stop-color:#81C0E9"/>
					<stop  offset="0.3041" style="stop-color:#A4D1EF;stop-opacity:0.6959"/>
					<stop  offset="0.9747" style="stop-color:#FCFDFE;stop-opacity:0.0253"/>
					<stop  offset="1" style="stop-color:#FFFFFF;stop-opacity:0"/>
				</linearGradient>
				<polygon style="opacity:0.7;fill:url(#SVGID_00000062907744878402443060000009350208231894187699_);" points="564.278,290.214 
					521.497,216.114 564.278,142.015 649.841,142.015 692.622,216.114 649.841,290.214 				"/>
			</g>
			<g style="clip-path:url(#SVGID_00000056395664142770439620000009318998436493683353_);">
				<g style="opacity:0.2;">
					<g>
						<g>
							<path style="fill:#FC690D;" d="M351.293,511.932L336.82,537h-28.946l-14.473-25.068l14.473-25.069h28.946L351.293,511.932z
								 M294.357,511.932l13.995,24.239h27.99l13.995-24.239l-13.995-24.24h-27.99L294.357,511.932z"/>
						</g>
						<g>
							<path style="fill:#FC690D;" d="M394.104,487.278l-14.473,25.068h-28.946l-14.473-25.068l14.473-25.068h28.946
								L394.104,487.278z M337.169,487.278l13.995,24.24h27.99l13.995-24.24l-13.995-24.239h-27.99L337.169,487.278z"/>
						</g>
						<g>
							<path style="fill:#FC690D;" d="M436.834,511.932L422.361,537h-28.946l-14.473-25.068l14.473-25.069h28.946L436.834,511.932z
								 M379.899,511.932l13.995,24.239h27.99l13.995-24.239l-13.995-24.24h-27.99L379.899,511.932z"/>
						</g>
						<g>
							<path style="fill:#FC690D;" d="M436.834,462.625l-14.473,25.068h-28.946l-14.473-25.068l14.473-25.068h28.946
								L436.834,462.625z M379.899,462.625l13.995,24.239h27.99l13.995-24.239l-13.995-24.239h-27.99L379.899,462.625z"/>
						</g>
						<g>
							<path style="fill:#FC690D;" d="M436.834,413.317l-14.473,25.068h-28.946l-14.473-25.068l14.473-25.068h28.946
								L436.834,413.317z M379.899,413.317l13.995,24.24h27.99l13.995-24.24l-13.995-24.239h-27.99L379.899,413.317z"/>
						</g>
						<g>
							<path style="fill:#FC690D;" d="M479.645,487.278l-14.473,25.068h-28.946l-14.473-25.068l14.473-25.068h28.946
								L479.645,487.278z M422.71,487.278l13.995,24.24h27.99l13.995-24.24l-13.995-24.239h-27.99L422.71,487.278z"/>
						</g>
						<g>
							<path style="fill:#FC690D;" d="M479.645,437.971l-14.473,25.068h-28.946l-14.473-25.068l14.473-25.069h28.946
								L479.645,437.971z M422.71,437.971l13.995,24.239h27.99l13.995-24.239l-13.995-24.24h-27.99L422.71,437.971z"/>
						</g>
						<g>
							<path style="fill:#FC690D;" d="M522.376,511.932L507.903,537h-28.946l-14.473-25.068l14.473-25.069h28.946L522.376,511.932z
								 M465.44,511.932l13.995,24.239h27.99l13.995-24.239l-13.995-24.24h-27.99L465.44,511.932z"/>
						</g>
						<g>
							<path style="fill:#FC690D;" d="M522.376,462.625l-14.473,25.068h-28.946l-14.473-25.068l14.473-25.068h28.946
								L522.376,462.625z M465.44,462.625l13.995,24.239h27.99l13.995-24.239l-13.995-24.239h-27.99L465.44,462.625z"/>
						</g>
						<g>
							<path style="fill:#FC690D;" d="M522.376,413.317l-14.473,25.068h-28.946l-14.473-25.068l14.473-25.068h28.946
								L522.376,413.317z M465.44,413.317l13.995,24.24h27.99l13.995-24.24l-13.995-24.239h-27.99L465.44,413.317z"/>
						</g>
						<g>
							<path style="fill:#FC690D;" d="M565.187,487.278l-14.473,25.068h-28.946l-14.473-25.068l14.473-25.068h28.946
								L565.187,487.278z M508.251,487.278l13.995,24.24h27.99l13.995-24.24l-13.995-24.239h-27.99L508.251,487.278z"/>
						</g>
						<g>
							<path style="fill:#FC690D;" d="M565.187,437.971l-14.473,25.068h-28.946l-14.473-25.068l14.473-25.069h28.946
								L565.187,437.971z M508.251,437.971l13.995,24.239h27.99l13.995-24.239l-13.995-24.24h-27.99L508.251,437.971z"/>
						</g>
						<g>
							<path style="fill:#FC690D;" d="M565.187,388.663l-14.473,25.068h-28.946l-14.473-25.068l14.473-25.069h28.946
								L565.187,388.663z M508.251,388.663l13.995,24.239h27.99l13.995-24.239l-13.995-24.24h-27.99L508.251,388.663z"/>
						</g>
						<g>
							<path style="fill:#FC690D;" d="M565.187,339.355l-14.473,25.068h-28.946l-14.473-25.068l14.473-25.068h28.946
								L565.187,339.355z M508.251,339.355l13.995,24.239h27.99l13.995-24.239l-13.995-24.24h-27.99L508.251,339.355z"/>
						</g>
						<g>
							<path style="fill:#FC690D;" d="M607.917,511.932L593.444,537h-28.946l-14.473-25.068l14.473-25.069h28.946L607.917,511.932z
								 M550.982,511.932l13.995,24.239h27.99l13.995-24.239l-13.995-24.24h-27.99L550.982,511.932z"/>
						</g>
						<g>
							<path style="fill:#FC690D;" d="M607.917,462.625l-14.473,25.068h-28.946l-14.473-25.068l14.473-25.068h28.946
								L607.917,462.625z M550.982,462.625l13.995,24.239h27.99l13.995-24.239l-13.995-24.239h-27.99L550.982,462.625z"/>
						</g>
						<g>
							<path style="fill:#FC690D;" d="M607.917,413.317l-14.473,25.068h-28.946l-14.473-25.068l14.473-25.068h28.946
								L607.917,413.317z M550.982,413.317l13.995,24.24h27.99l13.995-24.24l-13.995-24.239h-27.99L550.982,413.317z"/>
						</g>
						<g>
							<path style="fill:#FC690D;" d="M607.917,364.009l-14.473,25.068h-28.946l-14.473-25.068l14.473-25.068h28.946
								L607.917,364.009z M550.982,364.009l13.995,24.24h27.99l13.995-24.24l-13.995-24.239h-27.99L550.982,364.009z"/>
						</g>
						<g>
							<path style="fill:#FC690D;" d="M650.728,487.278l-14.473,25.068H607.31l-14.473-25.068l14.473-25.068h28.946L650.728,487.278
								z M593.793,487.278l13.995,24.24h27.99l13.995-24.24l-13.995-24.239h-27.99L593.793,487.278z"/>
						</g>
						<g>
							<path style="fill:#FC690D;" d="M650.728,437.971l-14.473,25.068H607.31l-14.473-25.068l14.473-25.069h28.946L650.728,437.971
								z M593.793,437.971l13.995,24.239h27.99l13.995-24.239l-13.995-24.24h-27.99L593.793,437.971z"/>
						</g>
						<g>
							<path style="fill:#FC690D;" d="M650.728,388.663l-14.473,25.068H607.31l-14.473-25.068l14.473-25.069h28.946L650.728,388.663
								z M593.793,388.663l13.995,24.239h27.99l13.995-24.239l-13.995-24.24h-27.99L593.793,388.663z"/>
						</g>
						<g>
							<path style="fill:#FC690D;" d="M650.728,339.355l-14.473,25.068H607.31l-14.473-25.068l14.473-25.068h28.946L650.728,339.355
								z M593.793,339.355l13.995,24.239h27.99l13.995-24.239l-13.995-24.24h-27.99L593.793,339.355z"/>
						</g>
						<g>
							<path style="fill:#FC690D;" d="M693.458,511.932L678.986,537H650.04l-14.473-25.068l14.473-25.069h28.946L693.458,511.932z
								 M636.523,511.932l13.995,24.239h27.99l13.995-24.239l-13.995-24.24h-27.99L636.523,511.932z"/>
						</g>
						<g>
							<path style="fill:#FC690D;" d="M693.458,462.625l-14.473,25.068H650.04l-14.473-25.068l14.473-25.068h28.946L693.458,462.625
								z M636.523,462.625l13.995,24.239h27.99l13.995-24.239l-13.995-24.239h-27.99L636.523,462.625z"/>
						</g>
						<g>
							<path style="fill:#FC690D;" d="M693.458,413.317l-14.473,25.068H650.04l-14.473-25.068l14.473-25.068h28.946L693.458,413.317
								z M636.523,413.317l13.995,24.24h27.99l13.995-24.24l-13.995-24.239h-27.99L636.523,413.317z"/>
						</g>
						<g>
							<path style="fill:#FC690D;" d="M693.458,364.009l-14.473,25.068H650.04l-14.473-25.068l14.473-25.068h28.946L693.458,364.009
								z M636.523,364.009l13.995,24.24h27.99l13.995-24.24l-13.995-24.239h-27.99L636.523,364.009z"/>
						</g>
						<g>
							<path style="fill:#FC690D;" d="M693.458,314.701l-14.473,25.068H650.04l-14.473-25.068l14.473-25.068h28.946L693.458,314.701
								z M636.523,314.701l13.995,24.24h27.99l13.995-24.24l-13.995-24.239h-27.99L636.523,314.701z"/>
						</g>
						<g>
							<path style="fill:#FC690D;" d="M693.458,265.393l-14.473,25.068H650.04l-14.473-25.068l14.473-25.068h28.946L693.458,265.393
								z M636.523,265.393l13.995,24.24h27.99l13.995-24.24l-13.995-24.239h-27.99L636.523,265.393z"/>
						</g>
						<g>
							<path style="fill:#FC690D;" d="M693.458,216.085l-14.473,25.069H650.04l-14.473-25.069l14.473-25.068h28.946L693.458,216.085
								z M636.523,216.085l13.995,24.24h27.99l13.995-24.24l-13.995-24.239h-27.99L636.523,216.085z"/>
						</g>
						<g>
							<path style="fill:#FC690D;" d="M736.27,487.278l-14.473,25.068h-28.946l-14.473-25.068l14.473-25.068h28.946L736.27,487.278z
								 M679.334,487.278l13.995,24.24h27.99l13.995-24.24l-13.995-24.239h-27.99L679.334,487.278z"/>
						</g>
						<g>
							<path style="fill:#FC690D;" d="M736.27,437.971l-14.473,25.068h-28.946l-14.473-25.068l14.473-25.069h28.946L736.27,437.971z
								 M679.334,437.971l13.995,24.239h27.99l13.995-24.239l-13.995-24.24h-27.99L679.334,437.971z"/>
						</g>
						<g>
							<path style="fill:#FC690D;" d="M736.27,388.663l-14.473,25.068h-28.946l-14.473-25.068l14.473-25.069h28.946L736.27,388.663z
								 M679.334,388.663l13.995,24.239h27.99l13.995-24.239l-13.995-24.24h-27.99L679.334,388.663z"/>
						</g>
						<g>
							<path style="fill:#FC690D;" d="M736.27,339.355l-14.473,25.068h-28.946l-14.473-25.068l14.473-25.068h28.946L736.27,339.355z
								 M679.334,339.355l13.995,24.239h27.99l13.995-24.239l-13.995-24.24h-27.99L679.334,339.355z"/>
						</g>
						<g>
							<path style="fill:#FC690D;" d="M736.27,290.048l-14.473,25.068h-28.946l-14.473-25.068l14.473-25.068h28.946L736.27,290.048z
								 M679.334,290.048l13.995,24.239h27.99l13.995-24.239l-13.995-24.24h-27.99L679.334,290.048z"/>
						</g>
						<g>
							<path style="fill:#FC690D;" d="M736.27,240.74l-14.473,25.068h-28.946l-14.473-25.068l14.473-25.068h28.946L736.27,240.74z
								 M679.334,240.74l13.995,24.239h27.99l13.995-24.239l-13.995-24.24h-27.99L679.334,240.74z"/>
						</g>
						<g>
							<path style="fill:#FC690D;" d="M779,511.932L764.527,537h-28.946l-14.473-25.068l14.473-25.069h28.946L779,511.932z
								 M722.065,511.932l13.995,24.239h27.99l13.995-24.239l-13.995-24.24h-27.99L722.065,511.932z"/>
						</g>
						<g>
							<path style="fill:#FC690D;" d="M779,462.625l-14.473,25.068h-28.946l-14.473-25.068l14.473-25.068h28.946L779,462.625z
								 M722.065,462.625l13.995,24.239h27.99l13.995-24.239l-13.995-24.239h-27.99L722.065,462.625z"/>
						</g>
						<g>
							<path style="fill:#FC690D;" d="M779,413.317l-14.473,25.068h-28.946l-14.473-25.068l14.473-25.068h28.946L779,413.317z
								 M722.065,413.317l13.995,24.24h27.99l13.995-24.24l-13.995-24.239h-27.99L722.065,413.317z"/>
						</g>
						<g>
							<path style="fill:#FC690D;" d="M779,364.009l-14.473,25.068h-28.946l-14.473-25.068l14.473-25.068h28.946L779,364.009z
								 M722.065,364.009l13.995,24.24h27.99l13.995-24.24l-13.995-24.239h-27.99L722.065,364.009z"/>
						</g>
						<g>
							<path style="fill:#FC690D;" d="M779,314.701l-14.473,25.068h-28.946l-14.473-25.068l14.473-25.068h28.946L779,314.701z
								 M722.065,314.701l13.995,24.24h27.99l13.995-24.24l-13.995-24.239h-27.99L722.065,314.701z"/>
						</g>
						<g>
							<path style="fill:#FC690D;" d="M779,265.393l-14.473,25.068h-28.946l-14.473-25.068l14.473-25.068h28.946L779,265.393z
								 M722.065,265.393l13.995,24.24h27.99l13.995-24.24l-13.995-24.239h-27.99L722.065,265.393z"/>
						</g>
						<g>
							<path style="fill:#FC690D;" d="M779,216.085l-14.473,25.069h-28.946l-14.473-25.069l14.473-25.068h28.946L779,216.085z
								 M722.065,216.085l13.995,24.24h27.99l13.995-24.24l-13.995-24.239h-27.99L722.065,216.085z"/>
						</g>
						<g>
							<path style="fill:#FC690D;" d="M779,166.778l-14.473,25.069h-28.946l-14.473-25.069l14.473-25.068h28.946L779,166.778z
								 M722.065,166.778l13.995,24.24h27.99l13.995-24.24l-13.995-24.239h-27.99L722.065,166.778z"/>
						</g>
					</g>
					<g>
						<g>
							<path style="fill:#FC690D;" d="M398.707-11.932L413.18-37h28.946l14.473,25.068l-14.473,25.069H413.18L398.707-11.932z
								 M455.643-11.932l-13.995-24.239h-27.99l-13.995,24.239l13.995,24.24h27.99L455.643-11.932z"/>
						</g>
						<g>
							<path style="fill:#FC690D;" d="M355.896,12.722l14.473-25.068h28.946l14.473,25.068L399.314,37.79h-28.946L355.896,12.722z
								 M412.831,12.722l-13.995-24.24h-27.99l-13.995,24.24l13.995,24.239h27.99L412.831,12.722z"/>
						</g>
						<g>
							<path style="fill:#FC690D;" d="M313.166-11.932L327.639-37h28.946l14.473,25.068l-14.473,25.069h-28.946L313.166-11.932z
								 M370.101-11.932l-13.995-24.239h-27.99l-13.995,24.239l13.995,24.24h27.99L370.101-11.932z"/>
						</g>
						<g>
							<path style="fill:#FC690D;" d="M313.166,37.375l14.473-25.068h28.946l14.473,25.068l-14.473,25.068h-28.946L313.166,37.375z
								 M370.101,37.375l-13.995-24.239h-27.99l-13.995,24.239l13.995,24.239h27.99L370.101,37.375z"/>
						</g>
						<g>
							<path style="fill:#FC690D;" d="M313.166,86.683l14.473-25.068h28.946l14.473,25.068l-14.473,25.068h-28.946L313.166,86.683z
								 M370.101,86.683l-13.995-24.24h-27.99l-13.995,24.24l13.995,24.239h27.99L370.101,86.683z"/>
						</g>
						<g>
							<path style="fill:#FC690D;" d="M270.354,12.722l14.473-25.068h28.946l14.473,25.068L313.773,37.79h-28.946L270.354,12.722z
								 M327.29,12.722l-13.995-24.24h-27.99l-13.995,24.24l13.995,24.239h27.99L327.29,12.722z"/>
						</g>
						<g>
							<path style="fill:#FC690D;" d="M270.354,62.029l14.473-25.068h28.946l14.473,25.068l-14.473,25.068h-28.946L270.354,62.029z
								 M327.29,62.029L313.295,37.79h-27.99l-13.995,24.239l13.995,24.24h27.99L327.29,62.029z"/>
						</g>
						<g>
							<path style="fill:#FC690D;" d="M227.624-11.932L242.097-37h28.946l14.473,25.068l-14.473,25.069h-28.946L227.624-11.932z
								 M284.56-11.932l-13.995-24.239h-27.99L228.58-11.932l13.995,24.24h27.99L284.56-11.932z"/>
						</g>
						<g>
							<path style="fill:#FC690D;" d="M227.624,37.375l14.473-25.068h28.946l14.473,25.068l-14.473,25.068h-28.946L227.624,37.375z
								 M284.56,37.375l-13.995-24.239h-27.99L228.58,37.375l13.995,24.239h27.99L284.56,37.375z"/>
						</g>
						<g>
							<path style="fill:#FC690D;" d="M227.624,86.683l14.473-25.068h28.946l14.473,25.068l-14.473,25.068h-28.946L227.624,86.683z
								 M284.56,86.683l-13.995-24.24h-27.99l-13.995,24.24l13.995,24.239h27.99L284.56,86.683z"/>
						</g>
						<g>
							<path style="fill:#FC690D;" d="M184.813,12.722l14.473-25.068h28.946l14.473,25.068L228.232,37.79h-28.946L184.813,12.722z
								 M241.748,12.722l-13.995-24.24h-27.99l-13.995,24.24l13.995,24.239h27.99L241.748,12.722z"/>
						</g>
						<g>
							<path style="fill:#FC690D;" d="M184.813,62.029l14.473-25.068h28.946l14.473,25.068l-14.473,25.068h-28.946L184.813,62.029z
								 M241.748,62.029L227.754,37.79h-27.99l-13.995,24.239l13.995,24.24h27.99L241.748,62.029z"/>
						</g>
						<g>
							<path style="fill:#FC690D;" d="M184.813,111.337l14.473-25.068h28.946l14.473,25.068l-14.473,25.068h-28.946L184.813,111.337
								z M241.748,111.337l-13.995-24.239h-27.99l-13.995,24.239l13.995,24.24h27.99L241.748,111.337z"/>
						</g>
						<g>
							<path style="fill:#FC690D;" d="M184.813,160.645l14.473-25.068h28.946l14.473,25.068l-14.473,25.068h-28.946L184.813,160.645
								z M241.748,160.645l-13.995-24.239h-27.99l-13.995,24.239l13.995,24.24h27.99L241.748,160.645z"/>
						</g>
						<g>
							<path style="fill:#FC690D;" d="M142.083-11.932L156.556-37h28.946l14.473,25.068l-14.473,25.069h-28.946L142.083-11.932z
								 M199.018-11.932l-13.995-24.239h-27.99l-13.995,24.239l13.995,24.24h27.99L199.018-11.932z"/>
						</g>
						<g>
							<path style="fill:#FC690D;" d="M142.083,37.375l14.473-25.068h28.946l14.473,25.068l-14.473,25.068h-28.946L142.083,37.375z
								 M199.018,37.375l-13.995-24.239h-27.99l-13.995,24.239l13.995,24.239h27.99L199.018,37.375z"/>
						</g>
						<g>
							<path style="fill:#FC690D;" d="M142.083,86.683l14.473-25.068h28.946l14.473,25.068l-14.473,25.068h-28.946L142.083,86.683z
								 M199.018,86.683l-13.995-24.24h-27.99l-13.995,24.24l13.995,24.239h27.99L199.018,86.683z"/>
						</g>
						<g>
							<path style="fill:#FC690D;" d="M142.083,135.991l14.473-25.069h28.946l14.473,25.069l-14.473,25.068h-28.946L142.083,135.991
								z M199.018,135.991l-13.995-24.24h-27.99l-13.995,24.24l13.995,24.239h27.99L199.018,135.991z"/>
						</g>
						<g>
							<path style="fill:#FC690D;" d="M99.272,12.722l14.473-25.068h28.946l14.473,25.068L142.69,37.79h-28.946L99.272,12.722z
								 M156.207,12.722l-13.995-24.24h-27.99l-13.995,24.24l13.995,24.239h27.99L156.207,12.722z"/>
						</g>
						<g>
							<path style="fill:#FC690D;" d="M99.272,62.029l14.473-25.068h28.946l14.473,25.068L142.69,87.097h-28.946L99.272,62.029z
								 M156.207,62.029L142.212,37.79h-27.99l-13.995,24.239l13.995,24.24h27.99L156.207,62.029z"/>
						</g>
						<g>
							<path style="fill:#FC690D;" d="M99.272,111.337l14.473-25.068h28.946l14.473,25.068l-14.473,25.068h-28.946L99.272,111.337z
								 M156.207,111.337l-13.995-24.239h-27.99l-13.995,24.239l13.995,24.24h27.99L156.207,111.337z"/>
						</g>
						<g>
							<path style="fill:#FC690D;" d="M99.272,160.645l14.473-25.068h28.946l14.473,25.068l-14.473,25.068h-28.946L99.272,160.645z
								 M156.207,160.645l-13.995-24.239h-27.99l-13.995,24.239l13.995,24.24h27.99L156.207,160.645z"/>
						</g>
						<g>
							<path style="fill:#FC690D;" d="M56.541-11.932L71.014-37H99.96l14.473,25.068L99.96,13.136H71.014L56.541-11.932z
								 M113.477-11.932L99.482-36.172h-27.99L57.498-11.932l13.995,24.24h27.99L113.477-11.932z"/>
						</g>
						<g>
							<path style="fill:#FC690D;" d="M56.541,37.375l14.473-25.068H99.96l14.473,25.068L99.96,62.443H71.014L56.541,37.375z
								 M113.477,37.375L99.482,13.136h-27.99L57.498,37.375l13.995,24.239h27.99L113.477,37.375z"/>
						</g>
						<g>
							<path style="fill:#FC690D;" d="M56.541,86.683l14.473-25.068H99.96l14.473,25.068L99.96,111.751H71.014L56.541,86.683z
								 M113.477,86.683l-13.995-24.24h-27.99l-13.995,24.24l13.995,24.239h27.99L113.477,86.683z"/>
						</g>
						<g>
							<path style="fill:#FC690D;" d="M56.541,135.991l14.473-25.069H99.96l14.473,25.069L99.96,161.059H71.014L56.541,135.991z
								 M113.477,135.991l-13.995-24.24h-27.99l-13.995,24.24l13.995,24.239h27.99L113.477,135.991z"/>
						</g>
						<g>
							<path style="fill:#FC690D;" d="M56.541,185.299l14.473-25.069H99.96l14.473,25.069L99.96,210.367H71.014L56.541,185.299z
								 M113.477,185.299l-13.995-24.24h-27.99l-13.995,24.24l13.995,24.239h27.99L113.477,185.299z"/>
						</g>
						<g>
							<path style="fill:#FC690D;" d="M56.541,234.607l14.473-25.069H99.96l14.473,25.069L99.96,259.674H71.014L56.541,234.607z
								 M113.477,234.607l-13.995-24.24h-27.99l-13.995,24.24l13.995,24.239h27.99L113.477,234.607z"/>
						</g>
						<g>
							<path style="fill:#FC690D;" d="M56.541,283.914l14.473-25.068H99.96l14.473,25.068L99.96,308.982H71.014L56.541,283.914z
								 M113.477,283.914l-13.995-24.24h-27.99l-13.995,24.24l13.995,24.239h27.99L113.477,283.914z"/>
						</g>
						<g>
							<path style="fill:#FC690D;" d="M13.73,12.722l14.473-25.068h28.946l14.473,25.068L57.148,37.79H28.203L13.73,12.722z
								 M70.665,12.722L56.67-11.518h-27.99l-13.995,24.24l13.995,24.239h27.99L70.665,12.722z"/>
						</g>
						<g>
							<path style="fill:#FC690D;" d="M13.73,62.029l14.473-25.068h28.946l14.473,25.068L57.148,87.097H28.203L13.73,62.029z
								 M70.665,62.029L56.67,37.79h-27.99L14.686,62.029l13.995,24.24h27.99L70.665,62.029z"/>
						</g>
						<g>
							<path style="fill:#FC690D;" d="M13.73,111.337l14.473-25.068h28.946l14.473,25.068l-14.473,25.068H28.203L13.73,111.337z
								 M70.665,111.337L56.67,87.097h-27.99l-13.995,24.239l13.995,24.24h27.99L70.665,111.337z"/>
						</g>
						<g>
							<path style="fill:#FC690D;" d="M13.73,160.645l14.473-25.068h28.946l14.473,25.068l-14.473,25.068H28.203L13.73,160.645z
								 M70.665,160.645L56.67,136.405h-27.99l-13.995,24.239l13.995,24.24h27.99L70.665,160.645z"/>
						</g>
						<g>
							<path style="fill:#FC690D;" d="M13.73,209.952l14.473-25.068h28.946l14.473,25.068l-14.473,25.068H28.203L13.73,209.952z
								 M70.665,209.952L56.67,185.713h-27.99l-13.995,24.239l13.995,24.24h27.99L70.665,209.952z"/>
						</g>
						<g>
							<path style="fill:#FC690D;" d="M13.73,259.26l14.473-25.068h28.946l14.473,25.068l-14.473,25.068H28.203L13.73,259.26z
								 M70.665,259.26L56.67,235.021h-27.99L14.686,259.26l13.995,24.24h27.99L70.665,259.26z"/>
						</g>
						<g>
							<path style="fill:#FC690D;" d="M-29-11.932L-14.527-37h28.946l14.473,25.068L14.418,13.136h-28.946L-29-11.932z
								 M27.935-11.932L13.94-36.172h-27.99l-13.995,24.239l13.995,24.24h27.99L27.935-11.932z"/>
						</g>
						<g>
							<path style="fill:#FC690D;" d="M-29,37.375l14.473-25.068h28.946l14.473,25.068L14.418,62.443h-28.946L-29,37.375z
								 M27.935,37.375L13.94,13.136h-27.99l-13.995,24.239l13.995,24.239h27.99L27.935,37.375z"/>
						</g>
						<g>
							<path style="fill:#FC690D;" d="M-29,86.683l14.473-25.068h28.946l14.473,25.068l-14.473,25.068h-28.946L-29,86.683z
								 M27.935,86.683L13.94,62.443h-27.99l-13.995,24.24l13.995,24.239h27.99L27.935,86.683z"/>
						</g>
						<g>
							<path style="fill:#FC690D;" d="M-29,135.991l14.473-25.069h28.946l14.473,25.069l-14.473,25.068h-28.946L-29,135.991z
								 M27.935,135.991l-13.995-24.24h-27.99l-13.995,24.24l13.995,24.239h27.99L27.935,135.991z"/>
						</g>
						<g>
							<path style="fill:#FC690D;" d="M-29,185.299l14.473-25.069h28.946l14.473,25.069l-14.473,25.068h-28.946L-29,185.299z
								 M27.935,185.299l-13.995-24.24h-27.99l-13.995,24.24l13.995,24.239h27.99L27.935,185.299z"/>
						</g>
						<g>
							<path style="fill:#FC690D;" d="M-29,234.607l14.473-25.069h28.946l14.473,25.069l-14.473,25.068h-28.946L-29,234.607z
								 M27.935,234.607l-13.995-24.24h-27.99l-13.995,24.24l13.995,24.239h27.99L27.935,234.607z"/>
						</g>
						<g>
							<path style="fill:#FC690D;" d="M-29,283.914l14.473-25.068h28.946l14.473,25.068l-14.473,25.068h-28.946L-29,283.914z
								 M27.935,283.914l-13.995-24.24h-27.99l-13.995,24.24l13.995,24.239h27.99L27.935,283.914z"/>
						</g>
						<g>
							<path style="fill:#FC690D;" d="M-29,333.222l14.473-25.068h28.946l14.473,25.068L14.418,358.29h-28.946L-29,333.222z
								 M27.935,333.222l-13.995-24.24h-27.99l-13.995,24.24l13.995,24.239h27.99L27.935,333.222z"/>
						</g>
					</g>
				</g>
				
					<linearGradient id="SVGID_00000082326568416231548930000006564133038732489400_" gradientUnits="userSpaceOnUse" x1="42.5917" y1="13.5008" x2="101.1083" y2="113.3824">
					<stop  offset="0" style="stop-color:#FDEC56"/>
					<stop  offset="1" style="stop-color:#FC6621"/>
				</linearGradient>
				<polygon style="fill:url(#SVGID_00000082326568416231548930000006564133038732489400_);" points="42.667,112.865 13.811,62.884 
					42.667,12.904 100.38,12.904 129.236,62.884 100.38,112.865 				"/>
				
					<linearGradient id="SVGID_00000039833597731673917070000006265770019545904262_" gradientUnits="userSpaceOnUse" x1="620.7968" y1="438.3089" x2="679.3133" y2="538.1905">
					<stop  offset="0" style="stop-color:#FDEC56"/>
					<stop  offset="1" style="stop-color:#FC6621"/>
				</linearGradient>
				<polygon style="fill:url(#SVGID_00000039833597731673917070000006265770019545904262_);" points="620.872,537.673 
					592.016,487.692 620.872,437.712 678.585,437.712 707.441,487.692 678.585,537.673 				"/>
				
					<linearGradient id="SVGID_00000101812387659602084930000006106577495063613097_" gradientUnits="userSpaceOnUse" x1="57.1385" y1="136.987" x2="114.1612" y2="234.3187">
					<stop  offset="0" style="stop-color:#FDEC56"/>
					<stop  offset="1" style="stop-color:#FC6621"/>
				</linearGradient>
				<polygon style="fill:url(#SVGID_00000101812387659602084930000006106577495063613097_);" points="57.212,233.814 29.093,185.11 
					57.212,136.405 113.451,136.405 141.571,185.11 113.451,233.814 				"/>
				
					<linearGradient id="SVGID_00000080180882369516330290000002928070459582752647_" gradientUnits="userSpaceOnUse" x1="650.7213" y1="240.9171" x2="708.6826" y2="339.8509">
					<stop  offset="0" style="stop-color:#FDEC56"/>
					<stop  offset="1" style="stop-color:#FC6621"/>
				</linearGradient>
				<polygon style="fill:url(#SVGID_00000080180882369516330290000002928070459582752647_);" points="650.796,339.338 
					622.214,289.832 650.796,240.326 707.961,240.326 736.543,289.832 707.961,339.338 				"/>
				
					<linearGradient id="SVGID_00000060745317732629282130000002316324627229662359_" gradientUnits="userSpaceOnUse" x1="199.7274" y1="136.6948" x2="228.107" y2="185.1359">
					<stop  offset="0" style="stop-color:#FDEC56"/>
					<stop  offset="1" style="stop-color:#FC6621"/>
				</linearGradient>
				<polygon style="fill:url(#SVGID_00000060745317732629282130000002316324627229662359_);" points="199.764,184.885 
					185.769,160.645 199.764,136.405 227.754,136.405 241.748,160.645 227.754,184.885 				"/>
				
					<linearGradient id="SVGID_00000064323435320920190500000004524948426633680316_" gradientUnits="userSpaceOnUse" x1="436.7052" y1="364.4611" x2="465.3829" y2="413.411">
					<stop  offset="0" style="stop-color:#FDEC56"/>
					<stop  offset="1" style="stop-color:#FC6621"/>
				</linearGradient>
				<polygon style="fill:url(#SVGID_00000064323435320920190500000004524948426633680316_);" points="436.742,413.157 
					422.6,388.663 436.742,364.168 465.026,364.168 479.168,388.663 465.026,413.157 				"/>
				
					<linearGradient id="SVGID_00000054232195307643376300000001134644462970139535_" gradientUnits="userSpaceOnUse" x1="551.2711" y1="389.5142" x2="594.0828" y2="462.5893">
					<stop  offset="0" style="stop-color:#FDEC56"/>
					<stop  offset="1" style="stop-color:#FC6621"/>
				</linearGradient>
				<polygon style="fill:url(#SVGID_00000054232195307643376300000001134644462970139535_);" points="551.326,462.21 
					530.215,425.644 551.326,389.077 593.55,389.077 614.661,425.644 593.55,462.21 				"/>
				
					<linearGradient id="SVGID_00000169552279523210614710000016778168710883002259_" gradientUnits="userSpaceOnUse" x1="392.6206" y1="437.9937" x2="435.4323" y2="511.0688">
					<stop  offset="0" style="stop-color:#FDEC56"/>
					<stop  offset="1" style="stop-color:#FC6621"/>
				</linearGradient>
				<polygon style="fill:url(#SVGID_00000169552279523210614710000016778168710883002259_);" points="392.676,510.69 
					371.564,474.123 392.676,437.557 434.899,437.557 456.011,474.123 434.899,510.69 				"/>
				
					<linearGradient id="SVGID_00000045583952008377978840000013385767404009662094_" gradientUnits="userSpaceOnUse" x1="142.4471" y1="-10.4585" x2="228.8315" y2="136.9907">
					<stop  offset="0" style="stop-color:#FE9113"/>
					<stop  offset="1" style="stop-color:#FFFFFF"/>
				</linearGradient>
				<polygon style="opacity:0.5;fill:url(#SVGID_00000045583952008377978840000013385767404009662094_);" points="142.558,136.226 
					99.96,62.443 142.558,-11.34 227.756,-11.34 270.354,62.443 227.756,136.226 				"/>
				
					<linearGradient id="SVGID_00000101077093197144117950000010822571931392923523_" gradientUnits="userSpaceOnUse" x1="177.7948" y1="25.1353" x2="220.987" y2="98.8599">
					<stop  offset="0" style="stop-color:#FDEC56"/>
					<stop  offset="1" style="stop-color:#FC6621"/>
				</linearGradient>
				<polygon style="fill:url(#SVGID_00000101077093197144117950000010822571931392923523_);" points="177.85,98.478 156.551,61.586 
					177.85,24.695 220.449,24.695 241.748,61.586 220.449,98.478 				"/>
				
					<linearGradient id="SVGID_00000122683570865452615410000006234236827642384050_" gradientUnits="userSpaceOnUse" x1="228.0449" y1="13.7535" x2="285.7395" y2="112.232">
					<stop  offset="0" style="stop-color:#FE9113"/>
					<stop  offset="1" style="stop-color:#FFFFFF"/>
				</linearGradient>
				<polygon style="opacity:0.5;fill:url(#SVGID_00000122683570865452615410000006234236827642384050_);" points="228.119,111.721 
					199.668,62.443 228.119,13.165 285.021,13.165 313.472,62.443 285.021,111.721 				"/>
				
					<linearGradient id="SVGID_00000016046682327091835200000012778655751027596713_" gradientUnits="userSpaceOnUse" x1="114.5137" y1="87.7156" x2="172.2083" y2="186.1941">
					<stop  offset="0" style="stop-color:#FE9113"/>
					<stop  offset="1" style="stop-color:#FFFFFF"/>
				</linearGradient>
				<polygon style="opacity:0.5;fill:url(#SVGID_00000016046682327091835200000012778655751027596713_);" points="114.588,185.684 
					86.137,136.405 114.588,87.127 171.49,87.127 199.941,136.405 171.49,185.684 				"/>
				
					<linearGradient id="SVGID_00000023978976876149189200000002746495174348477358_" gradientUnits="userSpaceOnUse" x1="492.3981" y1="412.7543" x2="550.0927" y2="511.2328">
					<stop  offset="0" style="stop-color:#FE9113"/>
					<stop  offset="1" style="stop-color:#FFFFFF"/>
				</linearGradient>
				<polygon style="opacity:0.5;fill:url(#SVGID_00000023978976876149189200000002746495174348477358_);" points="492.472,510.722 
					464.022,461.444 492.472,412.166 549.374,412.166 577.825,461.444 549.374,510.722 				"/>
				
					<linearGradient id="SVGID_00000120545960863938751850000011553775931151659947_" gradientUnits="userSpaceOnUse" x1="284.6406" y1="-60.2078" x2="342.3351" y2="38.2707">
					<stop  offset="0" style="stop-color:#FE9113"/>
					<stop  offset="1" style="stop-color:#FFFFFF"/>
				</linearGradient>
				<polygon style="opacity:0.5;fill:url(#SVGID_00000120545960863938751850000011553775931151659947_);" points="284.715,37.76 
					256.264,-11.518 284.715,-60.797 341.617,-60.797 370.067,-11.518 341.617,37.76 				"/>
				
					<linearGradient id="SVGID_00000165221589445494350770000011353302554380160183_" gradientUnits="userSpaceOnUse" x1="13.8446" y1="211.3068" x2="71.5392" y2="309.7853">
					<stop  offset="0" style="stop-color:#FE9113"/>
					<stop  offset="1" style="stop-color:#FFFFFF"/>
				</linearGradient>
				<polygon style="opacity:0.5;fill:url(#SVGID_00000165221589445494350770000011353302554380160183_);" points="13.919,309.275 
					-14.532,259.996 13.919,210.718 70.821,210.718 99.271,259.996 70.821,309.275 				"/>
				
					<linearGradient id="SVGID_00000133500686187529837630000003444027499096169136_" gradientUnits="userSpaceOnUse" x1="-43.057" y1="162.0286" x2="14.6375" y2="260.507">
					<stop  offset="0" style="stop-color:#FE9113"/>
					<stop  offset="1" style="stop-color:#FFFFFF"/>
				</linearGradient>
				<polygon style="opacity:0.5;fill:url(#SVGID_00000133500686187529837630000003444027499096169136_);" points="-42.983,259.996 
					-71.433,210.718 -42.983,161.44 13.919,161.44 42.37,210.718 13.919,259.996 				"/>
				
					<linearGradient id="SVGID_00000168106104905342482970000016125666473937100438_" gradientUnits="userSpaceOnUse" x1="-14.7951" y1="-36.3818" x2="42.8994" y2="62.0967">
					<stop  offset="0" style="stop-color:#FE9113"/>
					<stop  offset="1" style="stop-color:#FFFFFF"/>
				</linearGradient>
				<polygon style="opacity:0.5;fill:url(#SVGID_00000168106104905342482970000016125666473937100438_);" points="-14.721,61.586 
					-43.172,12.308 -14.721,-36.971 42.181,-36.971 70.632,12.308 42.181,61.586 				"/>
				
					<linearGradient id="SVGID_00000072992931354466720990000001008743797985428132_" gradientUnits="userSpaceOnUse" x1="249.7089" y1="49.5565" x2="293.2114" y2="123.8106">
					<stop  offset="0" style="stop-color:#FDEC56"/>
					<stop  offset="1" style="stop-color:#FC6621"/>
				</linearGradient>
				<polygon style="fill:url(#SVGID_00000072992931354466720990000001008743797985428132_);" points="249.765,123.426 
					228.313,86.269 249.765,49.113 292.67,49.113 314.122,86.269 292.67,123.426 				"/>
				
					<linearGradient id="SVGID_00000125586288892353910630000014740601940930234023_" gradientUnits="userSpaceOnUse" x1="693.7089" y1="290.4911" x2="737.2114" y2="364.7452">
					<stop  offset="0" style="stop-color:#FDEC56"/>
					<stop  offset="1" style="stop-color:#FC6621"/>
				</linearGradient>
				<polygon style="fill:url(#SVGID_00000125586288892353910630000014740601940930234023_);" points="693.765,364.36 
					672.313,327.204 693.765,290.047 736.67,290.047 758.122,327.204 736.67,364.36 				"/>
				<line style="fill:none;stroke:#FFFFFF;stroke-miterlimit:10;" x1="302.946" y1="-43" x2="175.131" y2="178.382"/>
				<polyline style="fill:none;stroke:#FFFFFF;stroke-miterlimit:10;" points="86.137,136.405 129.236,62.884 242.575,62.884 				
					"/>
				<line style="fill:none;stroke:#FFFFFF;stroke-miterlimit:10;" x1="72.046" y1="-36.172" x2="157.569" y2="111.96"/>
				<line style="fill:none;stroke:#FFFFFF;stroke-miterlimit:10;" x1="284.715" y1="37.76" x2="341.617" y2="37.76"/>
				<polyline style="fill:none;stroke:#FFFFFF;stroke-miterlimit:10;" points="156.207,12.722 142.212,37.79 114.222,37.79 				"/>
				<line style="fill:none;stroke:#FFFFFF;stroke-miterlimit:10;" x1="185.502" y1="12.308" x2="114.433" y2="135.991"/>
				<polyline style="fill:none;stroke:#FFFFFF;stroke-miterlimit:10;" points="-14.527,308.154 86.137,138.5 13.94,13.136 				"/>
				<polyline style="fill:none;stroke:#FFFFFF;stroke-miterlimit:10;" points="28.203,185.713 142.69,185.713 156.207,160.645 
					242.704,160.645 				"/>
				<polyline style="fill:none;stroke:#FFFFFF;stroke-miterlimit:10;" points="106.116,51.23 94.34,71.942 72.046,71.942 				"/>
				<polyline style="fill:none;stroke:#FFFFFF;stroke-miterlimit:10;" points="292.67,49.113 271.217,86.269 227.624,86.269 				"/>
				<polyline style="fill:none;stroke:#FFFFFF;stroke-miterlimit:10;" points="327.29,12.722 313.295,-11.518 256.264,-11.518 				
					"/>
				<line style="fill:none;stroke:#FFFFFF;stroke-miterlimit:10;" x1="56.67" y1="283.5" x2="113.744" y2="185.713"/>
				
					<linearGradient id="SVGID_00000170256879797177456060000012746996603597873300_" gradientUnits="userSpaceOnUse" x1="707.3639" y1="390.0753" x2="764.7472" y2="488.0226">
					<stop  offset="0" style="stop-color:#FE9113"/>
					<stop  offset="1" style="stop-color:#FFFFFF"/>
				</linearGradient>
				<polygon style="opacity:0.5;fill:url(#SVGID_00000170256879797177456060000012746996603597873300_);" points="707.438,487.515 
					679.141,438.502 707.438,389.49 764.033,389.49 792.33,438.502 764.033,487.515 				"/>
				
					<linearGradient id="SVGID_00000087372850408124816630000007638479716488432535_" gradientUnits="userSpaceOnUse" x1="578.7952" y1="315.0013" x2="636.6861" y2="413.8148">
					<stop  offset="0" style="stop-color:#FE9113"/>
					<stop  offset="1" style="stop-color:#FFFFFF"/>
				</linearGradient>
				<polygon style="opacity:0.5;fill:url(#SVGID_00000087372850408124816630000007638479716488432535_);" points="578.87,413.302 
					550.322,363.857 578.87,314.411 635.965,314.411 664.513,363.857 635.965,413.302 				"/>
				
					<linearGradient id="SVGID_00000152233592430994820960000012827917564841550758_" gradientUnits="userSpaceOnUse" x1="693.6563" y1="216.1164" x2="737.2653" y2="290.5525">
					<stop  offset="0" style="stop-color:#FE9113"/>
					<stop  offset="1" style="stop-color:#FFFFFF"/>
				</linearGradient>
				<polygon style="opacity:0.5;fill:url(#SVGID_00000152233592430994820960000012827917564841550758_);" points="693.713,290.167 
					672.208,252.919 693.713,215.671 736.722,215.671 758.227,252.919 736.722,290.167 				"/>
				
					<linearGradient id="SVGID_00000112630156691113700370000009466245931909910201_" gradientUnits="userSpaceOnUse" x1="434.0816" y1="463.1975" x2="477.6906" y2="537.6335">
					<stop  offset="0" style="stop-color:#FE9113"/>
					<stop  offset="1" style="stop-color:#FFFFFF"/>
				</linearGradient>
				<polygon style="opacity:0.5;fill:url(#SVGID_00000112630156691113700370000009466245931909910201_);" points="434.138,537.247 
					412.633,500 434.138,462.753 477.148,462.753 498.652,500 477.148,537.247 				"/>
				<polyline style="fill:none;stroke:#FFFFFF;stroke-miterlimit:10;" points="592.966,389.49 621.828,389.49 658.745,325.547 
					794.497,325.547 				"/>
				<line style="fill:none;stroke:#FFFFFF;stroke-miterlimit:10;" x1="635.965" y1="413.302" x2="564.976" y2="536.172"/>
				<line style="fill:none;stroke:#FFFFFF;stroke-miterlimit:10;" x1="736.722" y1="290.167" x2="679.334" y2="388.663"/>
				<polyline style="fill:none;stroke:#FFFFFF;stroke-miterlimit:10;" points="736.722,215.671 693.713,290.167 622.214,290.167 
									"/>
				<polyline style="fill:none;stroke:#FFFFFF;stroke-miterlimit:10;" points="693.458,413.317 707.438,389.49 736.06,389.49 				
					"/>
				<line style="fill:none;stroke:#FFFFFF;stroke-miterlimit:10;" x1="549.374" y1="412.932" x2="492.472" y2="511.489"/>
				<polyline style="fill:none;stroke:#FFFFFF;stroke-miterlimit:10;" points="769.497,389.49 732.58,453.432 658.745,453.432 				
					"/>
				<polyline style="fill:none;stroke:#FFFFFF;stroke-miterlimit:10;" points="434.138,462.753 477.148,462.753 491.308,487.279 
									"/>
				<polyline style="fill:none;stroke:#FFFFFF;stroke-miterlimit:10;" points="408.312,461.395 450.792,389.319 508.251,389.319 
									"/>
				<polyline style="fill:none;stroke:#FFFFFF;stroke-miterlimit:10;" points="521.768,364.423 607.31,364.423 635.778,315.115 				
					"/>
			</g>
		</g>
	</g>
</g>
</svg>
